<?xml version="1.0" encoding="utf-8"?>
<!-- Generator: Adobe Illustrator 21.0.0, SVG Export Plug-In . SVG Version: 6.00 Build 0)  -->
<svg version="1.1" id="Слой_1" xmlns="http://www.w3.org/2000/svg" xmlns:xlink="http://www.w3.org/1999/xlink" x="0px" y="0px"
	 viewBox="0 0 18 16" enable-background="new 0 0 18 16" xml:space="preserve">
<path fill-rule="evenodd" clip-rule="evenodd" fill="none" d="M7.4,2.5C7.2,2.2,7,1.9,6.6,1.6C6.3,1.4,6,1.3,5.5,1.3
	c-0.5,0-1,0.2-1.4,0.6C3.9,2.3,3.7,2.8,3.7,3.4c0,0.7,0.2,1.5,0.6,2.2c0.2,0.4,0.5,0.7,0.8,0.9c0.3,0.3,0.7,0.4,1.1,0.4
	c0.5,0,1-0.2,1.3-0.6C7.8,6.1,7.9,5.8,8,5.5c0-0.3,0-0.5,0-0.7C8,4.1,7.8,3.3,7.4,2.5z M5.7,10.1c-0.4,0.1-0.9,0.1-1.3,0.3
	c-0.1,0-0.2,0.1-0.4,0.2c-0.2,0.1-0.4,0.2-0.6,0.4c-0.2,0.2-0.3,0.4-0.5,0.6c-0.1,0.2-0.2,0.5-0.2,0.9c0,0.7,0.3,1.3,1,1.7
	c0.6,0.4,1.5,0.7,2.5,0.7c1,0,1.7-0.2,2.2-0.6c0.5-0.4,0.7-0.9,0.7-1.5c0-0.5-0.2-0.9-0.5-1.3C8.3,11,7.7,10.5,7,10
	c-0.1,0-0.3,0-0.5,0C6.4,10,6.1,10,5.7,10.1z M8.4,1.3c0.1,0.1,0.3,0.2,0.4,0.3C8.9,1.8,9.1,2,9.2,2.2C9.4,2.4,9.5,2.7,9.6,3
	c0.1,0.3,0.1,0.6,0.1,1c0,0.7-0.2,1.3-0.5,1.7C9.1,5.9,9,6.1,8.8,6.2C8.6,6.4,8.4,6.6,8.2,6.8C8.1,6.9,7.9,7,7.8,7.2
	C7.7,7.3,7.7,7.5,7.7,7.7c0,0.2,0.1,0.4,0.2,0.5C8,8.4,8.1,8.5,8.2,8.6l0.7,0.5c0.4,0.3,0.8,0.7,1.1,1.1c0.3,0.4,0.5,1,0.5,1.6
	c0,1-0.4,1.8-1.3,2.5c-0.9,0.8-2.2,1.2-3.9,1.2c-1.4,0-2.5-0.3-3.2-0.9C1.4,14.2,1,13.5,1,12.8c0-0.4,0.1-0.8,0.3-1.2
	c0.2-0.4,0.6-0.8,1.2-1.2C3.2,10,3.9,9.8,4.6,9.7c0.7-0.1,1.3-0.2,1.8-0.2C6.3,9.3,6.1,9.1,6,8.9C5.9,8.7,5.8,8.4,5.8,8.1
	c0-0.2,0-0.3,0.1-0.4C5.9,7.6,6,7.5,6,7.4c-0.2,0-0.4,0-0.7,0c-1.1,0-1.9-0.3-2.5-1C2.3,5.8,2,5.1,2,4.3c0-1,0.4-1.8,1.3-2.6
	c0.6-0.5,1.2-0.8,1.8-0.9c0.6-0.1,1.2-0.2,1.7-0.2h4.1L9.6,1.3H8.4z M17.2,7.9L17.2,7.9L17.2,7.9l-2.1,0v2H15V10h-1.2V7.9h-2.2V6.7
	h0.2v0h2V4.6H15v0h0.1v2.1h2.1V7.9z"/>
</svg>
