<svg xmlns="http://www.w3.org/2000/svg" width="142.75" height="35.813" viewBox="0 0 142.75 35.813">
  <metadata><?xpacket begin="﻿" id="W5M0MpCehiHzreSzNTczkc9d"?>
<x:xmpmeta xmlns:x="adobe:ns:meta/" x:xmptk="Adobe XMP Core 5.6-c138 79.159824, 2016/09/14-01:09:01        ">
   <rdf:RDF xmlns:rdf="http://www.w3.org/1999/02/22-rdf-syntax-ns#">
      <rdf:Description rdf:about=""/>
   </rdf:RDF>
</x:xmpmeta>
                                                                                                    
                                                                                                    
                                                                                                    
                                                                                                    
                                                                                                    
                                                                                                    
                                                                                                    
                                                                                                    
                                                                                                    
                                                                                                    
                                                                                                    
                                                                                                    
                                                                                                    
                                                                                                    
                                                                                                    
                                                                                                    
                                                                                                    
                                                                                                    
                                                                                                    
                                                                                                    
                           
<?xpacket end="w"?></metadata>
<defs>
    <style>
      .cls-1 {
        fill: #fff;
        fill-rule: evenodd;
      }
    </style>
  </defs>
  <path id="Logo_copie" data-name="Logo copie" class="cls-1" d="M3201.82,66.9a7.679,7.679,0,0,0,1.13-2.453,10.915,10.915,0,0,0,.38-2.959q0-5.766-4.8-8.194a9.588,9.588,0,0,0-2.96-.986c-0.89-.118-1.41-0.177-1.54-0.177h-8.4a2.483,2.483,0,0,0-1.77.733,2.332,2.332,0,0,0-.76,1.745v30.45a2.329,2.329,0,0,0,.76,1.745,2.48,2.48,0,0,0,1.77.733h10.62a9.011,9.011,0,0,0,3.52-.759,11.342,11.342,0,0,0,3.29-2.15,10.789,10.789,0,0,0,2.42-3.414,10.626,10.626,0,0,0,.94-4.552,11.76,11.76,0,0,0-1.14-5.286,9.272,9.272,0,0,0-3.31-3.718Zm-13.66-9.712h6.27a5.939,5.939,0,0,1,1.06.126,3.442,3.442,0,0,1,1.29.556,3.479,3.479,0,0,1,1.09,1.29,5.046,5.046,0,0,1,.46,2.327,3.9,3.9,0,0,1-.69,2.453,4.217,4.217,0,0,1-1.54,1.29,5.523,5.523,0,0,1-1.69.506,11.429,11.429,0,0,1-1.19.1h-5.06V57.189Zm8.72,25.19c-0.62.068-.95,0.1-0.98,0.1h-7.74V70.846h7.74a5.083,5.083,0,0,1,2.6.607,5.317,5.317,0,0,1,1.67,1.492,5.888,5.888,0,0,1,.91,1.9,6.772,6.772,0,0,1,.28,1.821,11.121,11.121,0,0,1-.07,1.265,6.833,6.833,0,0,1-.33,1.34,4.691,4.691,0,0,1-2.13,2.453A5.162,5.162,0,0,1,3196.88,82.378Zm18.39,4.4a2.411,2.411,0,0,0,.76-1.77V66.546a2.593,2.593,0,0,0-2.58-2.58,2.439,2.439,0,0,0-1.77.759,2.469,2.469,0,0,0-.76,1.821V85.009a2.411,2.411,0,0,0,.76,1.77,2.439,2.439,0,0,0,1.77.759A2.469,2.469,0,0,0,3215.27,86.779Zm0-32.726a2.469,2.469,0,0,0-1.82-.759,2.44,2.44,0,0,0-1.77.759,2.412,2.412,0,0,0-.76,1.77,2.469,2.469,0,0,0,.76,1.821,2.44,2.44,0,0,0,1.77.759,2.593,2.593,0,0,0,2.58-2.58A2.412,2.412,0,0,0,3215.27,54.052Zm16.24,21.75,7.43-7.436a2.69,2.69,0,0,0,0-3.642,2.816,2.816,0,0,0-1.82-.708,2.4,2.4,0,0,0-1.77.708l-9.51,9.459V54.255a2.412,2.412,0,0,0-.76-1.77,2.469,2.469,0,0,0-1.82-.759,2.6,2.6,0,0,0-2.53,2.529V85.009a2.539,2.539,0,0,0,4.35,1.77,2.411,2.411,0,0,0,.76-1.77V77.32l9.51,9.459a2.227,2.227,0,0,0,1.77.759,2.469,2.469,0,0,0,1.82-.759,2.411,2.411,0,0,0,.71-1.77,2.99,2.99,0,0,0-.15-0.986,2.265,2.265,0,0,0-.56-0.835Zm24.2,11.406a9.719,9.719,0,0,0,3.52-1.492,2.7,2.7,0,0,0,1.21-2.226,1.445,1.445,0,0,0-.25-1.062,2.757,2.757,0,0,0-1.04-1.062,2.609,2.609,0,0,0-1.29-.354,3.343,3.343,0,0,0-1.47.4,4.9,4.9,0,0,1-2.15.885,14.416,14.416,0,0,1-1.69.126h-0.3a4.653,4.653,0,0,1-1.95-.48,5.016,5.016,0,0,1-1.44-1.088,6.9,6.9,0,0,1-1.04-1.467,9.278,9.278,0,0,1-.68-1.619h12.69a2.407,2.407,0,0,0,1.77-.759,2.469,2.469,0,0,0,.76-1.821,12.493,12.493,0,0,0-.73-4.3,10.885,10.885,0,0,0-2.15-3.591,9.559,9.559,0,0,0-7.34-3.338,8.676,8.676,0,0,0-3.97.936,10.57,10.57,0,0,0-3.23,2.529,12.084,12.084,0,0,0-2.2,3.743,12.877,12.877,0,0,0-.81,4.578,12.64,12.64,0,0,0,2.53,8.043,9.27,9.27,0,0,0,3.28,2.63,10.8,10.8,0,0,0,4.3,1.062,4.56,4.56,0,0,0,.86.051A15.861,15.861,0,0,0,3255.71,87.209Zm-8.17-14.542a9.684,9.684,0,0,1,1.95-2.529,4.11,4.11,0,0,1,2.81-.91,4.255,4.255,0,0,1,2.83.86,7.187,7.187,0,0,1,1.77,2.58h-9.36Zm32.85,14.542a9.647,9.647,0,0,0,3.52-1.492,2.7,2.7,0,0,0,1.21-2.226,1.445,1.445,0,0,0-.25-1.062,2.69,2.69,0,0,0-1.04-1.062,2.609,2.609,0,0,0-1.29-.354,3.34,3.34,0,0,0-1.46.4,4.9,4.9,0,0,1-2.15.885,14.563,14.563,0,0,1-1.7.126h-0.3a4.692,4.692,0,0,1-1.95-.48,5.306,5.306,0,0,1-1.44-1.088,7.277,7.277,0,0,1-1.04-1.467,10.116,10.116,0,0,1-.68-1.619h12.7a2.44,2.44,0,0,0,1.77-.759,2.508,2.508,0,0,0,.76-1.821,12.5,12.5,0,0,0-.74-4.3,10.719,10.719,0,0,0-2.15-3.591,9.554,9.554,0,0,0-7.33-3.338,8.646,8.646,0,0,0-3.97.936,10.73,10.73,0,0,0-3.24,2.529,12.084,12.084,0,0,0-2.2,3.743,12.877,12.877,0,0,0-.81,4.578,12.64,12.64,0,0,0,2.53,8.043,9.305,9.305,0,0,0,3.29,2.63,10.754,10.754,0,0,0,4.3,1.062,4.415,4.415,0,0,0,.86.051A15.767,15.767,0,0,0,3280.39,87.209Zm-8.16-14.542a9.46,9.46,0,0,1,1.94-2.529,4.11,4.11,0,0,1,2.81-.91,4.237,4.237,0,0,1,2.83.86,6.946,6.946,0,0,1,1.77,2.58h-9.35Zm29.33-.455c-0.71-.2-1.19-0.337-1.46-0.4a7.145,7.145,0,0,1-1.57-.632,3.173,3.173,0,0,1-.81-0.632,1.391,1.391,0,0,1-.31-0.556,2.665,2.665,0,0,1-.05-0.455,0.814,0.814,0,0,1,.18-0.354,2.009,2.009,0,0,1,.58-0.506,4.885,4.885,0,0,1,1.01-.455,4.745,4.745,0,0,1,1.47-.2,3.884,3.884,0,0,1,1.01.152,4.477,4.477,0,0,1,1.01.4l-0.1-.051a3.332,3.332,0,0,0,1.47.4,2.32,2.32,0,0,0,2.12-1.163h-0.05a4.65,4.65,0,0,0,.33-0.658,1.728,1.728,0,0,0,.13-0.708,2.383,2.383,0,0,0-.33-1.189,2.626,2.626,0,0,0-.88-0.936,8.956,8.956,0,0,0-2.28-1.037,8.417,8.417,0,0,0-2.43-.379,10.575,10.575,0,0,0-3.31.506,8.152,8.152,0,0,0-2.66,1.416,6.759,6.759,0,0,0-1.74,2.124,5.627,5.627,0,0,0-.63,2.63,6.156,6.156,0,0,0,.6,2.807,7.081,7.081,0,0,0,1.57,2.049,8.452,8.452,0,0,0,2.12,1.391,15.269,15.269,0,0,0,2.28.835l0.1,0.051a8.017,8.017,0,0,1,1.47.481c0.5,0.22.99,0.455,1.44,0.708a10.406,10.406,0,0,1,1.16.733,2.076,2.076,0,0,1,.64.658,2.606,2.606,0,0,1-.71,1.922h0.05a3.183,3.183,0,0,1-1.47.961,6.56,6.56,0,0,1-2.07.3,5.474,5.474,0,0,1-1.85-.354,2.9,2.9,0,0,1-1.54-1.265,2.416,2.416,0,0,0-.96-0.986,2.555,2.555,0,0,0-1.22-.329,2.874,2.874,0,0,0-1.26.354,2.222,2.222,0,0,0-.96.936,2.668,2.668,0,0,0-.3,1.239,3.4,3.4,0,0,0,.35,1.315,8.024,8.024,0,0,0,3.19,3.06,9.3,9.3,0,0,0,4.55,1.138,10.613,10.613,0,0,0,4.07-.759,9.336,9.336,0,0,0,3.21-2.175,6.672,6.672,0,0,0,1.49-2.4,8.115,8.115,0,0,0,.48-2.757V78.888a6.171,6.171,0,0,0-.27-1.34,5.808,5.808,0,0,0-.76-1.492,7.973,7.973,0,0,0-1.47-1.517,12.174,12.174,0,0,0-2.4-1.467h0A14.434,14.434,0,0,0,3301.56,72.211Zm15.63,6.727a5.039,5.039,0,0,0-1.46,3.642,5,5,0,0,0,4.95,4.957,5.039,5.039,0,0,0,3.64-1.467,4.658,4.658,0,0,0,1.52-3.49,5.186,5.186,0,0,0-5.16-5.159A4.69,4.69,0,0,0,3317.19,78.939Z" transform="translate(-3183.09 -51.719)"/>
</svg>
