<svg xmlns="http://www.w3.org/2000/svg" width="235.5" height="59.094" viewBox="0 0 235.5 59.094">
  <metadata><?xpacket begin="﻿" id="W5M0MpCehiHzreSzNTczkc9d"?>
<x:xmpmeta xmlns:x="adobe:ns:meta/" x:xmptk="Adobe XMP Core 5.6-c138 79.159824, 2016/09/14-01:09:01        ">
   <rdf:RDF xmlns:rdf="http://www.w3.org/1999/02/22-rdf-syntax-ns#">
      <rdf:Description rdf:about=""/>
   </rdf:RDF>
</x:xmpmeta>
                                                                                                    
                                                                                                    
                                                                                                    
                                                                                                    
                                                                                                    
                                                                                                    
                                                                                                    
                                                                                                    
                                                                                                    
                                                                                                    
                                                                                                    
                                                                                                    
                                                                                                    
                                                                                                    
                                                                                                    
                                                                                                    
                                                                                                    
                                                                                                    
                                                                                                    
                                                                                                    
                           
<?xpacket end="w"?></metadata>
<defs>
    <style>
      .cls-1 {
        fill: #fff;
        fill-rule: evenodd;
      }
    </style>
  </defs>
  <path id="Logo" class="cls-1" d="M115.536,87.666a12.571,12.571,0,0,0,1.878-4.047,18.489,18.489,0,0,0,.626-4.882q0-9.513-7.928-13.519a15.751,15.751,0,0,0-4.882-1.627q-2.213-.291-2.545-0.292H88.832a4.073,4.073,0,0,0-2.921,1.21,3.87,3.87,0,0,0-1.252,2.879v50.238a3.865,3.865,0,0,0,1.252,2.879,4.068,4.068,0,0,0,2.921,1.21h17.525a14.856,14.856,0,0,0,5.8-1.251,18.461,18.461,0,0,0,5.424-3.547,17.67,17.67,0,0,0,5.549-13.144,19.425,19.425,0,0,0-1.877-8.72,15.306,15.306,0,0,0-5.466-6.134ZM93,71.643h10.348a9.821,9.821,0,0,1,1.753.209,5.558,5.558,0,0,1,3.922,3.046,8.256,8.256,0,0,1,.751,3.839,6.48,6.48,0,0,1-1.126,4.047,7,7,0,0,1-2.546,2.128,9.106,9.106,0,0,1-2.795.835,18.517,18.517,0,0,1-1.961.167H93V71.643ZM107.4,113.2q-1.545.168-1.627,0.167H93V94.175h12.769a8.4,8.4,0,0,1,4.3,1,8.783,8.783,0,0,1,2.754,2.462,9.86,9.86,0,0,1,1.5,3.129,11.507,11.507,0,0,1,.459,3,18.093,18.093,0,0,1-.125,2.087,9.533,9.533,0,0,1-.542,2.211,7.879,7.879,0,0,1-1.252,2.17,8.081,8.081,0,0,1-2.253,1.877A8.609,8.609,0,0,1,107.4,113.2Zm30.334,7.261a4,4,0,0,0,1.252-2.921V87.082a4.274,4.274,0,0,0-4.256-4.256,4,4,0,0,0-2.921,1.252,4.1,4.1,0,0,0-1.252,3v30.46a4.277,4.277,0,0,0,4.173,4.172A4.1,4.1,0,0,0,137.734,120.463Zm0-53.994a4.1,4.1,0,0,0-3-1.252,4.278,4.278,0,0,0-4.173,4.172,4.1,4.1,0,0,0,1.252,3,4,4,0,0,0,2.921,1.252,4.274,4.274,0,0,0,4.256-4.256A4,4,0,0,0,137.734,66.469Zm26.787,35.885,12.268-12.268a4.448,4.448,0,0,0,0-6.009,4.663,4.663,0,0,0-3-1.168,3.963,3.963,0,0,0-2.921,1.168L155.175,99.683V66.8a4,4,0,0,0-1.252-2.921,4.1,4.1,0,0,0-3-1.252,4.278,4.278,0,0,0-4.173,4.173v50.739a4.277,4.277,0,0,0,4.173,4.172,4.1,4.1,0,0,0,3-1.251,4,4,0,0,0,1.252-2.921V104.857l15.689,15.606a3.667,3.667,0,0,0,2.921,1.251,4.1,4.1,0,0,0,3-1.251,3.967,3.967,0,0,0,1.168-2.921,4.884,4.884,0,0,0-.25-1.628,3.75,3.75,0,0,0-.918-1.376Zm39.933,18.818a15.958,15.958,0,0,0,5.8-2.462,4.458,4.458,0,0,0,2-3.672,2.39,2.39,0,0,0-.417-1.752,4.526,4.526,0,0,0-1.711-1.753,4.325,4.325,0,0,0-2.128-.584,5.5,5.5,0,0,0-2.42.668,8.1,8.1,0,0,1-3.547,1.46,23.868,23.868,0,0,1-2.795.209h-0.5a7.694,7.694,0,0,1-3.213-.793,8.478,8.478,0,0,1-2.378-1.794,11.465,11.465,0,0,1-1.711-2.42,15.587,15.587,0,0,1-1.127-2.671h20.947a4,4,0,0,0,2.921-1.252,4.1,4.1,0,0,0,1.251-3,20.671,20.671,0,0,0-1.21-7.093,17.828,17.828,0,0,0-3.546-5.925,15.772,15.772,0,0,0-12.1-5.508,14.292,14.292,0,0,0-6.551,1.544,17.61,17.61,0,0,0-5.341,4.173,19.984,19.984,0,0,0-3.63,6.175,21.263,21.263,0,0,0-1.335,7.552,20.886,20.886,0,0,0,4.173,13.269,15.351,15.351,0,0,0,5.424,4.339,17.758,17.758,0,0,0,7.093,1.753,7.376,7.376,0,0,0,1.419.083A26.263,26.263,0,0,0,204.454,121.172ZM190.976,97.18a15.8,15.8,0,0,1,3.213-4.173,6.769,6.769,0,0,1,4.632-1.5,7.006,7.006,0,0,1,4.673,1.419,11.7,11.7,0,0,1,2.921,4.256H190.976Zm54.2,23.992a15.956,15.956,0,0,0,5.8-2.462,4.46,4.46,0,0,0,2-3.672,2.4,2.4,0,0,0-.417-1.752,4.526,4.526,0,0,0-1.711-1.753,4.328,4.328,0,0,0-2.128-.584,5.492,5.492,0,0,0-2.42.668,8.1,8.1,0,0,1-3.547,1.46,23.867,23.867,0,0,1-2.8.209h-0.5a7.69,7.69,0,0,1-3.213-.793,8.5,8.5,0,0,1-2.379-1.794,11.5,11.5,0,0,1-1.71-2.42,15.508,15.508,0,0,1-1.127-2.671h20.946a4,4,0,0,0,2.921-1.252,4.093,4.093,0,0,0,1.252-3,20.671,20.671,0,0,0-1.21-7.093,17.83,17.83,0,0,0-3.547-5.925,15.77,15.77,0,0,0-12.1-5.508,14.289,14.289,0,0,0-6.551,1.544,17.586,17.586,0,0,0-5.341,4.173,19.965,19.965,0,0,0-3.63,6.175,21.241,21.241,0,0,0-1.335,7.552,20.892,20.892,0,0,0,4.172,13.269,15.354,15.354,0,0,0,5.425,4.339,17.749,17.749,0,0,0,7.093,1.753,7.376,7.376,0,0,0,1.419.083A26.243,26.243,0,0,0,245.177,121.172ZM231.7,97.18a15.8,15.8,0,0,1,3.213-4.173,6.767,6.767,0,0,1,4.631-1.5,7,7,0,0,1,4.673,1.419,11.673,11.673,0,0,1,2.921,4.256H231.7Zm48.4-.751q-1.752-.5-2.42-0.668a11.939,11.939,0,0,1-2.587-1.043,5.117,5.117,0,0,1-1.335-1.043,2.146,2.146,0,0,1-.5-0.918,3.837,3.837,0,0,1-.084-0.751,1.348,1.348,0,0,1,.292-0.584,3.285,3.285,0,0,1,.96-0.835,7.9,7.9,0,0,1,1.669-.751,7.727,7.727,0,0,1,2.42-.334,6.4,6.4,0,0,1,1.669.25,7.477,7.477,0,0,1,1.669.668l-0.167-.083a5.486,5.486,0,0,0,2.421.668,3.839,3.839,0,0,0,3.5-1.919h-0.084A10.034,10.034,0,0,0,288.071,88a3.038,3.038,0,0,0,.208-1.168,3.948,3.948,0,0,0-.542-1.961,4.343,4.343,0,0,0-1.461-1.544,14.527,14.527,0,0,0-3.755-1.711,13.933,13.933,0,0,0-4.006-.626,17.465,17.465,0,0,0-5.466.835,13.457,13.457,0,0,0-4.381,2.337,11.164,11.164,0,0,0-2.879,3.5,9.25,9.25,0,0,0-1.043,4.34,10.066,10.066,0,0,0,1,4.632,11.51,11.51,0,0,0,2.587,3.38,13.8,13.8,0,0,0,3.5,2.3,24.706,24.706,0,0,0,3.756,1.377l0.166,0.083a12.977,12.977,0,0,1,2.421.793q1.251,0.544,2.378,1.168a18.375,18.375,0,0,1,1.919,1.21,3.38,3.38,0,0,1,1.043,1.085,4.281,4.281,0,0,1-1.168,3.171h0.084a5.274,5.274,0,0,1-2.421,1.586,10.791,10.791,0,0,1-3.421.5,9.049,9.049,0,0,1-3.046-.584,4.807,4.807,0,0,1-2.545-2.087,3.9,3.9,0,0,0-1.586-1.627,4.179,4.179,0,0,0-2-.542,4.762,4.762,0,0,0-2.086.584,3.705,3.705,0,0,0-1.586,1.544,4.368,4.368,0,0,0-.5,2.044,5.74,5.74,0,0,0,.584,2.17,13.311,13.311,0,0,0,5.257,5.049,15.361,15.361,0,0,0,7.511,1.877,17.529,17.529,0,0,0,6.718-1.251,15.428,15.428,0,0,0,5.3-3.589,11.181,11.181,0,0,0,2.462-3.964,13.386,13.386,0,0,0,.793-4.548v-0.918a10.519,10.519,0,0,0-.459-2.211,8.983,8.983,0,0,0-1.252-2.462,12.637,12.637,0,0,0-2.42-2.5,20.479,20.479,0,0,0-3.964-2.42h0A23.675,23.675,0,0,0,280.1,96.429Zm25.786,11.1a8.334,8.334,0,0,0-2.42,6.008,8.264,8.264,0,0,0,8.178,8.178,8.329,8.329,0,0,0,6.008-2.42,7.727,7.727,0,0,0,2.5-5.758,8.549,8.549,0,0,0-8.512-8.512A7.731,7.731,0,0,0,305.887,107.528Z" transform="translate(-84.656 -62.625)"/>
</svg>
