<?xml version="1.0" encoding="utf-8"?>
<!-- Generator: Adobe Illustrator 21.0.0, SVG Export Plug-In . SVG Version: 6.00 Build 0)  -->
<svg version="1.1" id="Слой_1" xmlns="http://www.w3.org/2000/svg" xmlns:xlink="http://www.w3.org/1999/xlink" x="0px" y="0px"
	 viewBox="0 0 34 31" style="enable-background:new 0 0 34 31;" xml:space="preserve">
<style type="text/css">
	.st0{fill:#FFFFFF;}
</style>
<path class="st0" d="M30.9,6.2H17c-1.7,0-3.1-1.4-3.1-3.1v0C13.9,1.4,15.3,0,17,0h13.9C32.6,0,34,1.4,34,3.1v0
	C34,4.8,32.6,6.2,30.9,6.2z"/>
<path class="st0" d="M31,18.4H3c-1.6,0-3-1.3-3-3v0c0-1.6,1.3-3,3-3h28c1.6,0,3,1.3,3,3v0C34,17.1,32.7,18.4,31,18.4z"/>
<path class="st0" d="M31,31H10.8c-1.6,0-3-1.3-3-3v0c0-1.6,1.3-3,3-3H31c1.6,0,3,1.3,3,3v0C34,29.7,32.7,31,31,31z"/>
</svg>
