<svg version="1.1" id="Слой_1" xmlns="http://www.w3.org/2000/svg" xmlns:xlink="http://www.w3.org/1999/xlink" x="0px" y="0px" viewBox="0 0 61 63" style="enable-background:new 0 0 61 63;" xml:space="preserve">
  <g>
    <path fill="#fff" d="M1.1,24.2C1.1,14.9,6.5,6.5,15,3c9.2-3.8,19.5-1.8,26.2,5.2c6.6,6.9,8.6,17.3,4.2,25.9c-1.9,3.6-1.2,5.6,1.4,8.1c3.8,3.7,7.3,7.7,11,11.6c2.2,2.3,3.5,5.1,0.8,7.4c-2.4,2-5.2,1.3-7.5-1.3c-3.6-4-7.5-7.6-10.9-11.7c-2.4-2.8-4.3-3.4-8-2C16.7,51.9,1.2,40.7,1.1,24.2z M24.1,38.7c7.6,0.1,14.4-6.4,14.6-14.1c0.2-7.6-6.2-14.4-14-14.7C16.9,9.7,10,16.3,9.9,24.3C9.9,32,16.3,38.6,24.1,38.7z"/>
  </g>
</svg>
