<?xml version="1.0" encoding="utf-8"?>
<!-- Generator: Adobe Illustrator 21.0.0, SVG Export Plug-In . SVG Version: 6.00 Build 0)  -->
<svg version="1.1" id="Слой_1" xmlns="http://www.w3.org/2000/svg" xmlns:xlink="http://www.w3.org/1999/xlink" x="0px" y="0px"
	 viewBox="0 0 16 14" enable-background="new 0 0 16 14" xml:space="preserve">
<path fill-rule="evenodd" clip-rule="evenodd" fill="#FF0000" d="M10.8,1.6c-1.6,0-2.9,1.2-2.9,2.8c0,0.2,0,0.4,0.1,0.6
	C5.6,4.9,3.4,3.8,2,2.1C1.7,2.5,1.6,3,1.6,3.5c0,1,0.5,1.8,1.3,2.3C2.4,5.8,2,5.7,1.6,5.5v0c0,1.3,1,2.5,2.3,2.7
	C3.7,8.3,3.4,8.3,3.1,8.3c-0.2,0-0.4,0-0.5,0C3,9.4,4,10.2,5.3,10.2c-1,0.7-2.3,1.2-3.6,1.2c-0.2,0-0.5,0-0.7,0
	c1.3,0.8,2.8,1.3,4.5,1.3c5.4,0,8.3-4.2,8.3-7.9c0-0.1,0-0.2,0-0.4c0.6-0.4,1.1-0.9,1.5-1.4c-0.5,0.2-1.1,0.4-1.7,0.4
	c0.6-0.3,1.1-0.9,1.3-1.5c-0.6,0.3-1.2,0.6-1.8,0.7C12.4,1.9,11.7,1.6,10.8,1.6"/>
</svg>
