<?xml version="1.0" encoding="utf-8"?>
<svg version="1.1" id="Слой_1" xmlns="http://www.w3.org/2000/svg" xmlns:xlink="http://www.w3.org/1999/xlink" x="0px" y="0px"
	 viewBox="0 0 111 111" style="enable-background:new 0 0 111 111;" xml:space="preserve">
<g>
	<path class="st0" fill="#FDFEFD" d="M24.6,0c19.5,0,39,0,58.5,0C98.5,0,111,12.5,111,27.9c0,18.6,0,37.2,0,55.7c0,15.2-12.3,27.5-27.4,27.4
		c-19.8,0-39.5,0-59.3,0c-13.5,0-24.4-10.9-24.3-24.3C0,66,0,45.3,0,24.6C0,11,11,0,24.6,0z M55.2,98.9C79,99,98.7,79.7,98.9,56.1
		C99.1,32,79.7,12.2,55.8,12.1C31.8,12,12.1,31.5,12.1,55.4C12.1,79.2,31.5,98.8,55.2,98.9z"/>
	<path class="st1" fill="#2ECB70" d="M55.2,98.9c-23.7-0.1-43.1-19.7-43.1-43.4c0-24,19.6-43.4,43.7-43.3C79.7,12.2,99.1,32,98.9,56.1
		C98.7,79.7,79,99,55.2,98.9z M52.2,15.3c-19.8,1.6-35.7,17.7-37,37.5c-1.5,23.3,16.9,42.7,39.9,43C77.3,96,95.7,77.8,95.8,55.7
		C95.9,32.4,75.9,13.5,52.2,15.3z"/>
	<path class="st2" fill="#FAFDFB" d="M52.2,15.3c23.6-1.9,43.7,17.1,43.5,40.3C95.7,77.8,77.3,96,55.2,95.8c-23-0.2-41.4-19.7-39.9-43
		C16.6,33,32.5,16.9,52.2,15.3z M33.7,53.8c0.1,3.4,1.3,6.5,3.4,9.2c4,5.3,9.2,9.3,14.5,13.4c2.8,2.2,5.1,2.1,8,0
		c5.6-4,9.8-9.3,14.7-14c4.1-4,4.1-11.2,1-15.8c-3-4.6-9.3-7.4-14.4-4.3c-4.4,2.6-7,1.6-10.7-0.3C42.4,38,33.2,47.2,33.7,53.8z
		 M55.4,37.8c-0.3,3,0.6,3.7,3.4,2.6c2.5-1,3.9-3,5.2-4.9c1.1-1.6,0.3-3.8-0.3-5.6c-0.3-0.9-1.8-1.3-2.6-0.5
		C58.6,31.9,55,33.7,55.4,37.8z M51.1,36.6c-0.4-2.1-1.3-3.6-3.5-3.3c-0.3,0-0.8,1.2-0.7,1.7C47.6,37,49.2,37.2,51.1,36.6z"/>
	<path class="st1" fill="#2ECB70" d="M33.7,53.8C33.2,47.2,42.4,38,50.1,42c3.8,2,6.3,3,10.7,0.3c5.1-3,11.4-0.2,14.4,4.3c3.1,4.6,3.1,11.8-1,15.8
		c-4.9,4.7-9.1,10-14.7,14c-2.9,2.1-5.2,2.1-8,0c-5.2-4-10.4-8-14.5-13.4C35,60.3,33.8,57.2,33.7,53.8z"/>
	<path class="st1" fill="#2ECB70" d="M55.4,37.8c-0.3-4.2,3.3-6,5.7-8.4c0.8-0.8,2.2-0.4,2.6,0.5c0.7,1.8,1.4,4,0.3,5.6c-1.3,1.9-2.8,3.9-5.2,4.9
		C56,41.5,55.1,40.8,55.4,37.8z"/>
	<path class="st1" fill="#2ECB70" d="M51.1,36.6c-2,0.6-3.5,0.4-4.2-1.7c-0.1-0.5,0.4-1.6,0.7-1.7C49.9,33,50.7,34.5,51.1,36.6z"/>
</g>
</svg>
