<?xml version="1.0" encoding="utf-8"?>
<svg version="1.1" id="Слой_1" xmlns="http://www.w3.org/2000/svg" xmlns:xlink="http://www.w3.org/1999/xlink" x="0px" y="0px"
	 viewBox="0 0 162 58" style="enable-background:new 0 0 162 58;" xml:space="preserve">
<g>
	<g>
		<g>
			<path fill="#FFFFFF" d="M22.2,15.6h3c0.2,0,0.4-0.2,0.4-0.4c0-0.2-0.2-0.4-0.4-0.4h-3c-0.2,0-0.4,0.2-0.4,0.4
				C21.9,15.5,22,15.6,22.2,15.6z M23.7,42c-0.9,0-1.6,0.7-1.6,1.6c0,0.9,0.7,1.6,1.6,1.6c0.9,0,1.6-0.7,1.6-1.6
				C25.3,42.8,24.6,42,23.7,42z M16,40.7h15.4V18H16V40.7z M65.3,33.2c-0.7,0-1.4,0.2-2,0.7c-0.6,0.5-1,1.1-1.2,1.9
				c-0.1,0.4-0.1,0.7-0.1,0.9V39c0,1,0.3,1.8,0.9,2.5c0.6,0.7,1.4,1,2.3,1c1.1,0,2-0.4,2.6-1.3c0.6-0.9,0.9-2,0.9-3.4
				c0-1.3-0.3-2.4-0.9-3.2C67.3,33.7,66.4,33.2,65.3,33.2z M119.3,33.1c-1.2,0-2.1,0.5-2.7,1.6c-0.5,0.9-0.8,1.9-0.8,3.2
				c0,1.2,0.3,2.3,0.8,3.1c0.6,1.1,1.5,1.6,2.7,1.6c1.1,0,2-0.5,2.6-1.6c0.6-0.9,0.8-1.9,0.8-3.2s-0.3-2.3-0.8-3.1
				C121.3,33.6,120.4,33.1,119.3,33.1z M80,33.2c-0.7,0-1.4,0.2-2,0.7c-0.6,0.5-1,1.1-1.2,1.9c-0.1,0.4-0.1,0.7-0.1,0.9V39
				c0,1,0.3,1.8,0.9,2.5c0.6,0.7,1.4,1,2.3,1c1.1,0,2-0.4,2.6-1.3c0.6-0.9,0.9-2,0.9-3.4c0-1.3-0.3-2.4-0.9-3.2
				C81.9,33.7,81,33.2,80,33.2z M49.4,28.5L49.4,28.5c-0.2,0.8-0.5,1.9-0.9,3.5L47,36.8h5L50.4,32C50.2,31.5,49.9,30.3,49.4,28.5z
				 M141.7,32.9c-1,0-1.7,0.4-2.4,1.2c-0.5,0.6-0.8,1.4-0.9,2.3h6.2c0-0.9-0.2-1.6-0.6-2.3C143.5,33.3,142.7,32.9,141.7,32.9z
				 M62.5,19.8c0-0.1,0-0.3,0-0.4v-0.9c-1.2,0-2.4,0.2-2.4,1.3c0,0.7,0.4,1,1,1C61.8,20.7,62.3,20.3,62.5,19.8z M46.3,15.5
				c-0.2-0.6-0.3-1.2-0.5-1.8h0c-0.1,0.5-0.3,1.2-0.5,1.8l-0.7,2.3h2.4L46.3,15.5z M144.4,14.8c2.2,0,3,1.8,3,3.3
				c0,0.3,0,0.6-0.1,0.7h-4.6c0,1.2,1,1.8,2.1,1.8c0.8,0,1.4-0.1,1.9-0.3l0.3,1.2c-0.6,0.3-1.4,0.4-2.4,0.4c-2.2,0-3.5-1.4-3.5-3.5
				C141.1,16.6,142.2,14.8,144.4,14.8z M117,15l0.1,1h0c0.3-0.5,1.1-1.2,2.2-1.2c1.2,0,2.4,0.8,2.4,2.9v4.1H120v-3.9
				c0-1-0.4-1.7-1.3-1.7c-0.7,0-1.2,0.5-1.4,1c-0.1,0.1-0.1,0.4-0.1,0.5v4h-1.7V17c0-0.8,0-1.4-0.1-2H117z M98.8,14.8
				c2.2,0,3,1.8,3,3.3c0,0.3,0,0.6-0.1,0.7h-4.6c0,1.2,1,1.8,2.1,1.8c0.8,0,1.4-0.1,1.9-0.3l0.3,1.2c-0.6,0.3-1.4,0.4-2.4,0.4
				c-2.2,0-3.5-1.4-3.5-3.5C95.4,16.6,96.6,14.8,98.8,14.8z M91.7,11.8h1.7v10h-1.7V11.8z M78,16c-0.7,0-1.4,0.2-1.8,0.5l-0.3-1.1
				c0.5-0.3,1.4-0.6,2.5-0.6c2.2,0,2.8,1.4,2.8,2.9v2.5c0,0.6,0,1.2,0.1,1.6h-1.6L79.5,21h0c-0.4,0.5-1.1,0.9-2,0.9
				c-1.4,0-2.2-1-2.2-2c0-1.7,1.5-2.6,4.1-2.6v-0.1C79.4,16.8,79.2,16,78,16z M67.7,12.1c0.6,0,1,0.4,1,0.9c0,0.5-0.4,0.9-1,0.9
				c-0.6,0-1-0.4-1-0.9C66.8,12.5,67.2,12.1,67.7,12.1z M68.6,15v6.9h-1.7V15H68.6z M44.8,12.3H47l3.1,9.5h-1.9l-0.9-2.7h-3
				l-0.8,2.7h-1.8L44.8,12.3z M33.3,43.8c0,1.7-1.4,3-3,3h-13c-1.7,0-3-1.4-3-3V14.9c0-1.7,1.4-3,3-3h13c1.7,0,3,1.4,3,3V43.8z
				 M54.2,44.5L52.4,39h-6l-1.6,5.4h-3.1L47.7,26h3.7l6,18.4H54.2z M54.8,21.8h-1.7L50.6,15h1.9l1.1,3.5c0.2,0.6,0.3,1.2,0.5,1.7h0
				c0.1-0.6,0.3-1.1,0.5-1.7l1.1-3.5h1.8L54.8,21.8z M58.4,19.9c0-1.7,1.5-2.6,4.1-2.6v-0.1c0-0.4-0.2-1.2-1.4-1.2
				c-0.7,0-1.4,0.2-1.8,0.5l-0.3-1.1c0.5-0.3,1.4-0.6,2.5-0.6c2.2,0,2.8,1.4,2.8,2.9v2.5c0,0.6,0,1.2,0.1,1.6h-1.6L62.6,21h0
				c-0.4,0.5-1.1,0.9-2,0.9C59.2,22,58.4,21,58.4,19.9z M70,43c-1.1,1.2-2.5,1.7-4.1,1.7c-1.8,0-3-0.6-3.8-1.9v7h-3V35.5
				c0-1.4,0-2.9-0.1-4.4h2.6l0.2,2.1h0.1c1-1.6,2.5-2.4,4.5-2.4c1.6,0,2.9,0.6,3.9,1.9c1,1.2,1.6,2.9,1.6,4.9
				C71.8,39.9,71.2,41.7,70,43z M73,21.8h-1.7v-10H73V21.8z M84.6,43c-1.1,1.2-2.5,1.7-4.1,1.7c-1.8,0-3-0.6-3.8-1.9v7h-3V35.5
				c0-1.4,0-2.9-0.1-4.4h2.6l0.2,2.1h0.1c1-1.6,2.5-2.4,4.5-2.4c1.6,0,2.9,0.6,3.9,1.9c1.1,1.2,1.6,2.9,1.6,4.9
				C86.4,39.9,85.8,41.7,84.6,43z M86.6,22c-0.9,0-1.7-0.3-2.2-1.2h0l-0.1,1h-1.5c0-0.5,0.1-1.2,0.1-1.9v-8.1h1.7v4.1h0
				c0.4-0.7,1.2-1.1,2.2-1.1c1.7,0,2.9,1.4,2.9,3.5C89.7,20.7,88.2,22,86.6,22z M101.5,43.1c-1.2,1.1-2.9,1.6-5,1.6
				c-2,0-3.6-0.4-4.8-1.1l0.7-2.5c1.3,0.8,2.7,1.1,4.3,1.1c1.1,0,2-0.3,2.6-0.8c0.6-0.5,0.9-1.2,0.9-2c0-0.7-0.3-1.4-0.8-1.9
				c-0.5-0.5-1.4-1-2.5-1.4c-3.2-1.2-4.8-3-4.8-5.3c0-1.5,0.6-2.8,1.7-3.7c1.1-1,2.7-1.4,4.5-1.4c1.7,0,3.1,0.3,4.2,0.9l-0.7,2.4
				c-1-0.6-2.2-0.8-3.5-0.8c-1,0-1.9,0.3-2.4,0.8c-0.5,0.5-0.7,1-0.7,1.7c0,0.7,0.3,1.3,0.8,1.8c0.5,0.4,1.4,0.9,2.7,1.4
				c1.6,0.6,2.8,1.4,3.5,2.2c0.7,0.9,1.1,1.9,1.1,3.2C103.1,40.9,102.6,42.1,101.5,43.1z M111.9,33.4h-3.3v6.5
				c0,1.6,0.6,2.5,1.7,2.5c0.5,0,1,0,1.3-0.1l0.1,2.2c-0.6,0.2-1.3,0.3-2.3,0.3c-1.2,0-2.1-0.4-2.7-1.1c-0.7-0.7-1-1.9-1-3.6v-6.7
				h-1.9v-2.2h1.9v-2.4l2.9-0.9v3.3h3.3V33.4z M110.2,22c-1.9,0-3.4-1.3-3.4-3.5c0-2.3,1.5-3.6,3.5-3.6c2,0,3.4,1.4,3.4,3.5
				C113.8,20.8,112,22,110.2,22z M124,42.7c-1.2,1.3-2.9,2-4.9,2c-2,0-3.5-0.6-4.7-1.9c-1.2-1.3-1.7-2.9-1.7-4.9
				c0-2.1,0.6-3.8,1.8-5.1c1.2-1.3,2.8-2,4.8-2c2,0,3.5,0.6,4.7,1.9c1.1,1.3,1.7,2.9,1.7,4.9C125.8,39.8,125.2,41.4,124,42.7z
				 M127.1,15h1v-1.3l1.7-0.5V15h1.6v1.3h-1.6v3c0,0.8,0.2,1.3,0.9,1.3c0.3,0,0.5,0,0.7-0.1l0,1.3c-0.3,0.1-0.7,0.2-1.3,0.2
				c-0.6,0-1.2-0.2-1.5-0.6c-0.4-0.4-0.5-1-0.5-1.9v-3.2h-1V15z M134.7,33.8c-0.3-0.1-0.6-0.1-0.9-0.1c-1,0-1.8,0.4-2.4,1.2
				c-0.5,0.7-0.7,1.6-0.7,2.6v7h-3v-9.1c0-1.5,0-2.9-0.1-4.2h2.6l0.1,2.5h0.1c0.3-0.9,0.8-1.6,1.5-2.1c0.7-0.5,1.4-0.7,2.1-0.7
				c0.3,0,0.5,0,0.7,0V33.8z M135.1,17.7v4.1h-1.7v-10h1.7v4.1h0c0.2-0.3,0.5-0.6,0.9-0.8c0.4-0.2,0.8-0.3,1.2-0.3
				c1.2,0,2.4,0.8,2.4,3v4h-1.7V18c0-1-0.4-1.7-1.3-1.7c-0.7,0-1.2,0.5-1.4,1C135.1,17.3,135.1,17.5,135.1,17.7z M147.3,38.5h-8.9
				c0,1.3,0.5,2.3,1.3,3c0.7,0.6,1.7,0.9,2.9,0.9c1.3,0,2.5-0.2,3.6-0.6l0.5,2.1c-1.3,0.6-2.7,0.8-4.5,0.8c-2.1,0-3.7-0.6-4.9-1.8
				c-1.2-1.2-1.8-2.8-1.8-4.9c0-2,0.6-3.7,1.6-5c1.2-1.4,2.7-2.1,4.7-2.1c1.9,0,3.4,0.7,4.4,2.1c0.8,1.1,1.2,2.5,1.2,4.2
				C147.4,37.7,147.4,38.2,147.3,38.5z M86.2,16.1c-0.7,0-1.4,0.5-1.5,1.3c0,0.1-0.1,0.3-0.1,0.5V19c0,0.1,0,0.3,0,0.4
				c0.2,0.7,0.8,1.2,1.5,1.2c1.1,0,1.7-0.9,1.7-2.3C88,17.1,87.4,16.1,86.2,16.1z M98.7,16c-1.1,0-1.5,1-1.6,1.7h3
				C100.1,17,99.8,16,98.7,16z M110.3,16.1c-1.2,0-1.7,1.2-1.7,2.3c0,1.3,0.7,2.3,1.7,2.3c1,0,1.7-1,1.7-2.3
				C112,17.3,111.5,16.1,110.3,16.1z M77,19.7c0,0.7,0.4,1,1,1c0.7,0,1.2-0.5,1.4-0.9c0-0.1,0-0.3,0-0.4v-0.9
				C78.2,18.4,77,18.7,77,19.7z M144.3,16c-1.1,0-1.5,1-1.6,1.7h3C145.8,17,145.5,16,144.3,16z"/>
		</g>
	</g>
	<g>
		<path fill="#FFFFFF" d="M153.7,58H8c-4.3,0-7.7-3.5-7.7-7.7V8.4c0-4.3,3.5-7.7,7.7-7.7h145.7c4.3,0,7.7,3.5,7.7,7.7v41.9
			C161.4,54.5,157.9,58,153.7,58z M8,2.7c-3.2,0-5.7,2.6-5.7,5.7v41.9C2.3,53.4,4.8,56,8,56h145.7c3.2,0,5.7-2.6,5.7-5.7V8.4
			c0-3.2-2.6-5.7-5.7-5.7H8z"/>
	</g>
</g>
</svg>
