<?xml version="1.0" encoding="utf-8"?>
<svg version="1.1" id="Слой_1" xmlns="http://www.w3.org/2000/svg" xmlns:xlink="http://www.w3.org/1999/xlink" x="0px" y="0px" width="28" height="26"
	 viewBox="0 0 28 26" style="enable-background:new 0 0 28 26;" xml:space="preserve">
<path fill="#FFFFFF" d="M9.1,3.1H5V0.8C5,0.4,5.4,0,5.8,0h2.3c0.5,0,0.9,0.4,0.9,0.9V3.1z"/>
<path fill="#FFFFFF" d="M23,3.1H19V0.9C19,0.4,19.4,0,19.9,0h2.2C22.6,0,23,0.4,23,0.9V3.1z"/>
<path fill="#FFFFFF" d="M25.2,3.1H2.7C1.7,3.1,1,3.8,1,4.7v19.6C1,25.3,1.7,26,2.7,26h22.5c0.9,0,1.7-0.7,1.7-1.7V4.7
	C26.8,3.8,26.1,3.1,25.2,3.1z M23.9,22.7h-20V6.6h20V22.7z"/>
<rect x="6.7" y="10.1" fill="#FFFFFF" width="3.4" height="3"/>
<rect x="6.7" y="16.3" fill="#FFFFFF" width="3.4" height="3"/>
<rect x="17.7" y="10" fill="#FFFFFF" width="3.3" height="3.1"/>
<rect x="17.7" y="16.3" fill="#FFFFFF" width="3.3" height="3.1"/>
<rect x="12.4" y="16.3" fill="#FFFFFF" width="3.2" height="3"/>
<rect x="12.3" y="10.1" fill="#FFFFFF" width="3.2" height="3"/>
</svg>
