<?xml version="1.0" encoding="utf-8"?>
<svg version="1.1" id="Слой_1" xmlns="http://www.w3.org/2000/svg" xmlns:xlink="http://www.w3.org/1999/xlink" x="0px" y="0px" width="42" height="39"
	 viewBox="0 0 42 39" style="enable-background:new 0 0 42 39;" xml:space="preserve">
<path fill="#FFFFFF" d="M13.5,4.6H7.2V1.2C7.2,0.6,7.7,0,8.4,0h3.6c0.8,0,1.4,0.6,1.4,1.4V4.6z"/>
<path fill="#FFFFFF" d="M35,4.6h-6.3V1.4c0-0.8,0.6-1.4,1.4-1.4h3.5C34.4,0,35,0.6,35,1.4V4.6z"/>
<path fill="#FFFFFF" d="M38.3,4.6H3.5C2.2,4.6,1,5.7,1,7.1v29.4C1,37.9,2.2,39,3.5,39h34.8c1.4,0,2.5-1.1,2.5-2.5V7.1
	C40.8,5.7,39.7,4.6,38.3,4.6z M36.4,34H5.5V9.9h30.9V34z"/>
<rect x="9.8" y="15.1" fill="#FFFFFF" width="5.2" height="4.6"/>
<rect x="9.8" y="24.4" fill="#FFFFFF" width="5.2" height="4.6"/>
<rect x="26.8" y="15.1" fill="#FFFFFF" width="5.1" height="4.7"/>
<rect x="26.8" y="24.4" fill="#FFFFFF" width="5.1" height="4.6"/>
<rect x="18.6" y="24.4" fill="#FFFFFF" width="5" height="4.6"/>
<rect x="18.4" y="15.1" fill="#FFFFFF" width="5" height="4.6"/>
</svg>
