<?xml version="1.0" encoding="utf-8"?>
<!-- Generator: Adobe Illustrator 21.0.0, SVG Export Plug-In . SVG Version: 6.00 Build 0)  -->
<svg version="1.1" id="Слой_1" xmlns="http://www.w3.org/2000/svg" xmlns:xlink="http://www.w3.org/1999/xlink" x="0px" y="0px" width="42" height="41"
	 viewBox="0 0 42 41" style="enable-background:new 0 0 42 41;" xml:space="preserve">
<path fill="#FFFFFF" d="M40.1,6.1c0.7,1,1.2,2.7,1.4,3.9c1.4,8.8-3.9,12.2-6.5,15.2c-5,5.9-9.1,9.8-14.1,15.6c-5-5.8-9.4-10.2-14.4-16
	c-3.6-4.3-7-7.7-6.3-15.5C0.4,7.9,2,5.3,3,4.3c5.2-5.1,11-4.8,16.6-1.4C20,3.1,21,4,21,4s1.1-1,1.8-1.2C29.6-1.1,35.4-1,40.1,6.1z"
	/>
</svg>
