<?xml version="1.0" encoding="utf-8"?>
<svg version="1.1" id="Слой_1" xmlns="http://www.w3.org/2000/svg" xmlns:xlink="http://www.w3.org/1999/xlink" x="0px" y="0px" width="28" height="27"
	 viewBox="0 0 28 27" style="enable-background:new 0 0 28 27;" xml:space="preserve">
<path fill="#FFFFFF" d="M26.7,4c0.4,0.7,0.8,1.8,0.9,2.6c0.9,5.8-2.6,8-4.3,10c-3.3,3.9-6.1,6.5-9.4,10.3C10.7,23,7.7,20,4.4,16.3
	C2,13.4-0.2,11.2,0.3,6.1c0.1-0.9,1.1-2.6,1.8-3.3c3.5-3.4,7.3-3.1,11-1C13.3,2,14,2.6,14,2.6s0.7-0.6,1.2-0.8
	C19.8-0.8,23.6-0.7,26.7,4z"/>
</svg>
