<?xml version="1.0" encoding="utf-8"?>
<svg version="1.1" id="Слой_1" xmlns="http://www.w3.org/2000/svg" xmlns:xlink="http://www.w3.org/1999/xlink" x="0px" y="0px"
	 viewBox="0 0 171 58" style="enable-background:new 0 0 171 58;" xml:space="preserve">
<g>
	<path fill="#FFFFFF" d="M162.3,57.9H8.3c-4.7,0-8.5-3.8-8.5-8.5V9.1c0-4.7,3.8-8.5,8.5-8.5h154c4.7,0,8.5,3.8,8.5,8.5v40.3
		C170.7,54.1,166.9,57.9,162.3,57.9z M8.3,2.7c-3.6,0-6.5,2.9-6.5,6.5v40.3c0,3.6,2.9,6.5,6.5,6.5h154c3.6,0,6.5-2.9,6.5-6.5V9.1
		c0-3.6-2.9-6.5-6.5-6.5H8.3z"/>
</g>
<g>
	<path fill="#FFFFFF" d="M56.6,17.4h-1.1c0-0.2-0.1-0.6-0.3-1.3h-1.6c-0.2,0.7-0.3,1.2-0.3,1.3h-1.1c0-0.1,0.3-0.8,0.8-2.3
		c0.6-1.4,0.8-2.2,0.8-2.3h1.3c0,0.1,0.3,0.9,0.8,2.3C56.4,16.5,56.6,17.3,56.6,17.4z M55,15.4c-0.4-1.2-0.6-1.9-0.6-2h-0.1
		c0,0.1-0.2,0.8-0.6,2H55z"/>
	<path fill="#FFFFFF" d="M61.2,17.4h-0.9c0-0.1-0.3-0.6-1-1.5c-0.7-1-1.1-1.6-1.2-2h-0.1c0.1,0.5,0.1,1,0.1,1.4c0,0.6,0,1.3,0,2.1h-0.9
		c0-0.7,0.1-1.5,0.1-2.4c0-0.9,0-1.6-0.1-2.2h1.1c0,0.1,0.3,0.6,0.9,1.5c0.6,0.9,1,1.6,1.1,1.9h0.1c-0.1-0.5-0.1-1-0.1-1.4
		c0-0.6,0-1.3,0-2h0.9c0,0.6,0,1.3,0,2.2C61.1,15.9,61.2,16.7,61.2,17.4z"/>
	<path fill="#FFFFFF" d="M66.3,14.9c0,0.7-0.2,1.3-0.6,1.8c-0.4,0.5-1,0.8-1.8,0.8c-0.4,0-0.8,0-1.4,0c0-0.7,0-1.5,0-2.4
		c0-0.9,0-1.6,0-2.2h0.6c0.1,0,0.3,0,0.5,0c0.2,0,0.3,0,0.4,0c0.9,0,1.5,0.2,1.9,0.6C66.1,13.8,66.3,14.3,66.3,14.9z M65.4,15.1
		c0-0.5-0.1-0.8-0.4-1.1c-0.3-0.3-0.7-0.5-1.2-0.5c-0.1,0-0.2,0-0.4,0c0,0.5,0,1,0,1.5c0,0.6,0,1.1,0,1.7c0.2,0,0.3,0,0.5,0
		c0.5,0,0.9-0.2,1.1-0.5C65.2,15.9,65.4,15.5,65.4,15.1z"/>
	<path fill="#FFFFFF" d="M71.1,17.4h-1c-0.3-0.8-0.5-1.4-0.6-1.6c-0.1-0.2-0.4-0.3-0.7-0.3c-0.1,0-0.3,0-0.4,0c0,0.6,0,1.2,0,1.8h-1
		c0-0.7,0-1.5,0-2.4c0-0.9,0-1.6,0-2.2H68c0.1,0,0.2,0,0.4,0c0.2,0,0.4,0,0.6,0c1.1,0,1.6,0.4,1.6,1.1c0,0.6-0.3,1-0.9,1.2v0.1
		c0.2,0.1,0.4,0.3,0.6,0.6C70.5,16,70.8,16.6,71.1,17.4z M69.7,14.1c0-0.5-0.3-0.7-0.9-0.7c-0.2,0-0.4,0-0.6,0c0,0.4,0,0.8,0,1.4
		c0.1,0,0.2,0,0.3,0C69.4,14.9,69.7,14.6,69.7,14.1z"/>
	<path fill="#FFFFFF" d="M76.2,15c0,0.7-0.2,1.3-0.7,1.8c-0.4,0.5-1,0.7-1.6,0.7c-0.6,0-1.1-0.2-1.6-0.7c-0.4-0.4-0.6-1-0.6-1.7
		c0-0.7,0.2-1.3,0.7-1.8c0.4-0.5,1-0.7,1.6-0.7c0.6,0,1.1,0.2,1.6,0.7C76,13.7,76.2,14.3,76.2,15z M75.2,15.1c0-0.5-0.1-0.9-0.4-1.2
		c-0.3-0.3-0.6-0.5-0.9-0.5c-0.3,0-0.6,0.2-0.9,0.5c-0.2,0.3-0.4,0.7-0.4,1.2c0,0.5,0.1,0.9,0.4,1.2c0.3,0.3,0.6,0.5,0.9,0.5
		c0.3,0,0.6-0.2,0.9-0.5C75.1,15.9,75.2,15.6,75.2,15.1z"/>
	<path fill="#FFFFFF" d="M78.2,17.4h-1c0-0.7,0-1.5,0-2.4c0-0.9,0-1.6,0-2.2h1c0,0.6,0,1.3,0,2.2C78.1,15.9,78.1,16.7,78.2,17.4z"/>
	<path fill="#FFFFFF" d="M83.3,14.9c0,0.7-0.2,1.3-0.6,1.8c-0.4,0.5-1,0.8-1.8,0.8c-0.4,0-0.8,0-1.4,0c0-0.7,0-1.5,0-2.4
		c0-0.9,0-1.6,0-2.2H80c0.1,0,0.3,0,0.5,0c0.2,0,0.3,0,0.4,0c0.9,0,1.5,0.2,1.9,0.6C83.1,13.8,83.3,14.3,83.3,14.9z M82.3,15.1
		c0-0.5-0.1-0.8-0.4-1.1c-0.3-0.3-0.7-0.5-1.2-0.5c-0.1,0-0.2,0-0.4,0c0,0.5,0,1,0,1.5c0,0.6,0,1.1,0,1.7c0.2,0,0.3,0,0.5,0
		c0.5,0,0.9-0.2,1.1-0.5C82.2,15.9,82.3,15.5,82.3,15.1z"/>
	<path fill="#FFFFFF" d="M90.1,17.4H89c0-0.2-0.1-0.6-0.3-1.3H87c-0.2,0.7-0.3,1.2-0.3,1.3h-1.1c0-0.1,0.3-0.8,0.8-2.3
		c0.6-1.4,0.8-2.2,0.8-2.3h1.3c0,0.1,0.3,0.9,0.8,2.3C89.9,16.5,90.1,17.3,90.1,17.4z M88.5,15.4c-0.4-1.2-0.6-1.9-0.6-2h-0.1
		c0,0.1-0.2,0.8-0.6,2H88.5z"/>
	<path fill="#FFFFFF" d="M94.3,14c0,0.6-0.2,1-0.6,1.3c-0.4,0.3-0.9,0.4-1.5,0.4c-0.1,0-0.2,0-0.2,0c0,0.4,0,1,0,1.8h-1
		c0-0.7,0-1.5,0-2.4c0-0.9,0-1.6,0-2.2h0.6c0.1,0,0.3,0,0.5,0s0.5,0,0.6,0c0.4,0,0.8,0.1,1.1,0.3C94.1,13.2,94.3,13.6,94.3,14z
		 M93.4,14.2c0-0.5-0.3-0.8-1-0.8c-0.2,0-0.3,0-0.5,0.1c0,0.4,0,1,0,1.5c0.1,0,0.1,0,0.2,0C92.9,15,93.4,14.7,93.4,14.2z"/>
	<path fill="#FFFFFF" d="M98.5,14c0,0.6-0.2,1-0.6,1.3c-0.4,0.3-0.9,0.4-1.5,0.4c-0.1,0-0.2,0-0.2,0c0,0.4,0,1,0,1.8h-1
		c0-0.7,0-1.5,0-2.4c0-0.9,0-1.6,0-2.2h0.6c0.1,0,0.3,0,0.5,0s0.5,0,0.6,0c0.4,0,0.8,0.1,1.1,0.3C98.4,13.2,98.5,13.6,98.5,14z
		 M97.6,14.2c0-0.5-0.3-0.8-1-0.8c-0.2,0-0.3,0-0.5,0.1c0,0.4,0,1,0,1.5c0.1,0,0.1,0,0.2,0C97.2,15,97.6,14.7,97.6,14.2z"/>
	<path fill="#FFFFFF" d="M105.5,15c0,0.7-0.2,1.3-0.7,1.8c-0.4,0.5-1,0.7-1.6,0.7c-0.6,0-1.1-0.2-1.6-0.7c-0.4-0.4-0.6-1-0.6-1.7
		c0-0.7,0.2-1.3,0.7-1.8c0.4-0.5,1-0.7,1.6-0.7c0.6,0,1.1,0.2,1.6,0.7C105.3,13.7,105.5,14.3,105.5,15z M104.5,15.1
		c0-0.5-0.1-0.9-0.4-1.2c-0.3-0.3-0.6-0.5-0.9-0.5c-0.3,0-0.6,0.2-0.9,0.5c-0.2,0.3-0.4,0.7-0.4,1.2c0,0.5,0.1,0.9,0.4,1.2
		c0.3,0.3,0.6,0.5,0.9,0.5c0.3,0,0.6-0.2,0.9-0.5C104.4,15.9,104.5,15.6,104.5,15.1z"/>
	<path fill="#FFFFFF" d="M110.3,17.4h-0.9c0-0.1-0.3-0.6-1-1.5c-0.7-1-1.1-1.6-1.2-2h-0.1c0.1,0.5,0.1,1,0.1,1.4c0,0.6,0,1.3,0,2.1
		h-0.9c0-0.7,0.1-1.5,0.1-2.4c0-0.9,0-1.6-0.1-2.2h1.1c0,0.1,0.3,0.6,0.9,1.5c0.6,0.9,1,1.6,1.1,1.9h0.1c-0.1-0.5-0.1-1-0.1-1.4
		c0-0.6,0-1.3,0-2h0.9c0,0.6,0,1.3,0,2.2C110.2,15.9,110.3,16.7,110.3,17.4z"/>
</g>
<g>
	<path fill="#FFFFFF" d="M68.4,32.2c0,2.3-0.7,4.1-2,5.5c-1.5,1.6-3.6,2.4-6,2.4c-2.4,0-4.4-0.8-6-2.5c-1.7-1.6-2.5-3.7-2.5-6.1
		c0-2.4,0.8-4.5,2.5-6.1c1.7-1.6,3.7-2.5,6-2.5c1.2,0,2.3,0.2,3.4,0.7c1.1,0.5,1.9,1.1,2.6,1.8l-1.4,1.4c-1.1-1.3-2.6-1.9-4.5-1.9
		c-1.7,0-3.2,0.6-4.5,1.8C54.6,28,54,29.6,54,31.5c0,1.9,0.6,3.5,1.9,4.7c1.3,1.2,2.8,1.8,4.5,1.8c1.8,0,3.4-0.6,4.6-1.8
		c0.8-0.8,1.3-1.9,1.4-3.3h-6v-2h8C68.4,31.4,68.4,31.8,68.4,32.2z"/>
	<path fill="#FFFFFF" d="M70.9,29.8c1.1-1.1,2.5-1.7,4.1-1.7c1.7,0,3.1,0.6,4.1,1.7c1.1,1.1,1.6,2.6,1.6,4.3s-0.5,3.1-1.6,4.3
		c-1.1,1.1-2.5,1.7-4.1,1.7c-1.7,0-3.1-0.6-4.1-1.7c-1.1-1.1-1.6-2.6-1.6-4.3S69.9,31,70.9,29.8z M72.5,37c0.7,0.7,1.6,1.1,2.6,1.1
		c1,0,1.9-0.4,2.6-1.1c0.7-0.7,1.1-1.7,1.1-2.9c0-1.2-0.4-2.2-1.1-2.9c-0.7-0.7-1.6-1.1-2.6-1.1c-1,0-1.9,0.4-2.6,1.1
		c-0.7,0.7-1.1,1.7-1.1,2.9C71.4,35.3,71.8,36.3,72.5,37z"/>
	<path fill="#FFFFFF" d="M83.2,29.8c1.1-1.1,2.5-1.7,4.1-1.7c1.7,0,3.1,0.6,4.1,1.7c1.1,1.1,1.6,2.6,1.6,4.3s-0.5,3.1-1.6,4.3
		c-1.1,1.1-2.5,1.7-4.1,1.7c-1.7,0-3.1-0.6-4.1-1.7c-1.1-1.1-1.6-2.6-1.6-4.3S82.1,31,83.2,29.8z M84.8,37c0.7,0.7,1.6,1.1,2.6,1.1
		c1,0,1.9-0.4,2.6-1.1c0.7-0.7,1.1-1.7,1.1-2.9c0-1.2-0.4-2.2-1.1-2.9c-0.7-0.7-1.6-1.1-2.6-1.1c-1,0-1.9,0.4-2.6,1.1
		c-0.7,0.7-1.1,1.7-1.1,2.9C83.7,35.3,84,36.3,84.8,37z"/>
	<path fill="#FFFFFF" d="M99.4,45c-1.3,0-2.4-0.3-3.3-1c-0.8-0.7-1.4-1.4-1.8-2.3l1.9-0.8c0.2,0.6,0.6,1.1,1.2,1.5
		c0.6,0.4,1.2,0.6,2,0.6c1.2,0,2.1-0.3,2.7-1c0.7-0.7,1-1.6,1-2.8v-1.1H103c-0.4,0.5-0.9,1-1.6,1.4c-0.7,0.4-1.4,0.6-2.3,0.6
		c-1.5,0-2.7-0.6-3.8-1.7c-1.1-1.1-1.6-2.6-1.6-4.3s0.5-3.1,1.6-4.3c1.1-1.1,2.3-1.7,3.8-1.7c0.8,0,1.6,0.2,2.3,0.5
		c0.7,0.4,1.2,0.8,1.6,1.4h0.1v-1.6h2v10.7c0,1.9-0.6,3.4-1.7,4.4C102.3,44.5,101,45,99.4,45z M99.5,38.2c1,0,1.8-0.4,2.5-1.1
		c0.7-0.7,1-1.7,1-3c0-1.2-0.3-2.2-1-3c-0.7-0.7-1.5-1.1-2.5-1.1c-1,0-1.8,0.4-2.5,1.1c-0.7,0.7-1.1,1.7-1.1,2.9
		c0,1.2,0.4,2.2,1.1,2.9C97.7,37.8,98.5,38.2,99.5,38.2z"/>
	<path fill="#FFFFFF" d="M109.2,39.7h-2.1V23.3h2.1V39.7z"/>
	<path fill="#FFFFFF" d="M116.2,40.1c-1.7,0-3.1-0.6-4.1-1.7c-1.1-1.1-1.6-2.6-1.6-4.3c0-1.6,0.5-3,1.5-4.2c1-1.2,2.3-1.8,4-1.8
		c1.7,0,3,0.5,4,1.6c1,1.1,1.5,2.5,1.5,4.4l0,0.4h-8.9c0.1,1.1,0.4,2,1.1,2.7c0.7,0.7,1.5,1,2.4,1c1.5,0,2.5-0.6,3.1-1.9l1.9,0.8
		c-0.4,0.9-1,1.6-1.8,2.2C118.4,39.8,117.4,40.1,116.2,40.1z M119.2,32.8c0-0.6-0.3-1.3-0.9-1.8c-0.5-0.6-1.3-0.9-2.4-0.9
		c-0.8,0-1.5,0.2-2,0.7c-0.6,0.5-1,1.1-1.2,2H119.2z"/>
	<path fill="#FFFFFF" d="M129.8,39.7h-2.1V23.3h5.6c1.4,0,2.6,0.5,3.6,1.4c1,0.9,1.5,2.1,1.5,3.5c0,1.4-0.5,2.6-1.5,3.5
		c-1,0.9-2.2,1.4-3.6,1.4h-3.5V39.7z M129.8,31.1h3.5c0.9,0,1.6-0.3,2.1-0.9c0.5-0.6,0.8-1.3,0.8-2c0-0.7-0.3-1.4-0.8-2
		c-0.5-0.6-1.2-0.9-2.1-0.9h-3.5V31.1z"/>
	<path fill="#FFFFFF" d="M141.9,39.7h-2.1V23.3h2.1V39.7z"/>
	<path fill="#FFFFFF" d="M147.3,40.1c-1.2,0-2.2-0.3-3-1c-0.8-0.7-1.2-1.6-1.2-2.7c0-1.2,0.5-2.2,1.4-2.9c0.9-0.7,2.1-1,3.5-1
		c1.2,0,2.3,0.2,3,0.7v-0.3c0-0.8-0.3-1.5-0.8-2c-0.6-0.5-1.3-0.7-2.1-0.7c-0.6,0-1.2,0.1-1.7,0.4c-0.5,0.3-0.8,0.7-1,1.2l-1.9-0.8
		c0.3-0.7,0.8-1.3,1.5-1.9c0.8-0.6,1.8-0.9,3-0.9c1.4,0,2.6,0.4,3.6,1.3c0.9,0.8,1.4,2,1.4,3.6v6.8h-2v-1.6H151
		C150.1,39.4,148.9,40.1,147.3,40.1z M147.6,38.2c0.9,0,1.7-0.3,2.4-1c0.7-0.6,1.1-1.4,1.1-2.3c-0.6-0.5-1.5-0.7-2.7-0.7
		c-1,0-1.8,0.2-2.3,0.7c-0.5,0.4-0.8,1-0.8,1.6c0,0.5,0.2,1,0.7,1.3C146.5,38,147,38.2,147.6,38.2z"/>
	<path fill="#FFFFFF" d="M157.7,44.7h-2.2l2.6-5.7l-4.6-10.5h2.3l3.3,8.1h0l3.3-8.1h2.3L157.7,44.7z"/>
</g>
<g>
	<path fill="#FFFFFF" d="M12.5,31.2c0-5.2,0-10.5,0-15.7c0-0.6,0.1-1.2,0.6-1.7c0.2-0.2,0.3-0.2,0.5,0c3.5,3.6,7.1,7.2,10.6,10.8
		c2.3,2.3,4.6,4.7,6.9,7c0.2,0.2,0.2,0.3,0,0.6c-5.6,5.6-11.2,11.2-16.8,16.8c-0.3,0.3-0.6,0.3-0.9,0.1c-0.6-0.5-0.8-1.1-0.8-1.8
		c0-3.1,0-6.2,0-9.3C12.5,35.6,12.5,33.4,12.5,31.2C12.5,31.2,12.5,31.2,12.5,31.2z"/>
	<path fill="#FFFFFF" d="M14.5,13.2c0.4,0,0.7,0.1,1,0.3c7.2,4,14.4,8,21.5,12.1c0.3,0.2,0.3,0.3,0.1,0.5c-1.6,1.6-3.2,3.2-4.8,4.8
		c-0.2,0.2-0.3,0.3-0.5,0c-5.7-5.8-11.4-11.6-17.2-17.5C14.7,13.4,14.6,13.3,14.5,13.2z"/>
	<path fill="#FFFFFF" d="M16.1,48.8c5.2-5.3,10.4-10.5,15.6-15.8c0.3-0.3,0.5-0.3,0.8,0c1.3,1.4,2.7,2.7,4,4.1c0.2,0.2,0.3,0.3-0.1,0.5
		c-6.7,3.7-13.4,7.3-20.1,11C16.3,48.6,16.2,48.7,16.1,48.8z"/>
	<path fill="#FFFFFF" d="M45.9,31.4c0,0.6-0.3,1-0.7,1.3c-0.3,0.2-0.7,0.4-1,0.6c-2,1.1-4.1,2.2-6.1,3.4c-0.3,0.2-0.4,0.1-0.7-0.1
		c-1.4-1.5-2.9-3-4.3-4.4c-0.2-0.2-0.2-0.3,0-0.5c1.7-1.7,3.4-3.4,5.1-5c0.2-0.2,0.3-0.2,0.6-0.1c2,1.1,4,2.2,6,3.4
		C45.4,30.2,45.9,30.6,45.9,31.4z"/>
</g>
</svg>
