<?xml version="1.0" encoding="utf-8"?>
<svg version="1.1" id="Слой_1" xmlns="http://www.w3.org/2000/svg" xmlns:xlink="http://www.w3.org/1999/xlink" x="0px" y="0px" width="36" height="36"
	 viewBox="0 0 36 36" style="enable-background:new 0 0 36 36;" xml:space="preserve">
<g>
	<path fill="#FFFFFF" d="M27.5,35.4c0,0,0-27,0-27c0,0-2,0-2,0c2.5-4.1,2.5-4.1,4.9-7.7c2.2,3.6,2.5,4.1,4.9,7.9c0,0-1.8,0-1.8,0
		c0,4.2,0,26.8,0,26.8C32.3,35.4,28.9,35.4,27.5,35.4z"/>
	<polygon fill="#FFFFFF" points="18.4,35.5 18.4,12.8 24.4,12.8 24.4,35.5 18.4,35.5 	"/>
	<polygon fill="#FFFFFF" points="9.5,35.5 9.5,18.7 15.4,18.7 15.4,35.5 9.5,35.5 	"/>
	<polygon fill="#FFFFFF" points="6.6,23.2 6.6,35.5 0.7,35.5 0.8,23.2 	"/>
</g>
</svg>
