<?xml version="1.0" encoding="utf-8"?>
<svg version="1.1" id="Слой_1" xmlns="http://www.w3.org/2000/svg" xmlns:xlink="http://www.w3.org/1999/xlink" x="0px" y="0px" width="24" height="24"
	 viewBox="0 0 24 24" style="enable-background:new 0 0 24 24;" xml:space="preserve">
<g>
	<path fill="#FFFFFF" d="M18.4,23.7c0,0,0-18.1,0-18.1c0,0-1.3,0-1.3,0c1.7-2.7,1.7-2.7,3.3-5.2c1.5,2.4,1.7,2.8,3.3,5.3
		c0,0-1.2,0-1.2,0c0,2.8,0,18,0,18C21.6,23.7,19.3,23.7,18.4,23.7z"/>
	<polygon fill="#FFFFFF" points="12.2,23.8 12.2,8.5 16.3,8.5 16.3,23.8 12.2,23.8 	"/>
	<polygon fill="#FFFFFF" points="6.3,23.8 6.3,12.5 10.2,12.5 10.2,23.8 6.3,23.8 	"/>
	<polygon fill="#FFFFFF" points="4.3,15.5 4.3,23.8 0.3,23.8 0.4,15.5 	"/>
</g>
</svg>
