<svg xmlns="http://www.w3.org/2000/svg" width="132.531" height="37.094" viewBox="0 0 132.531 37.094">
  <path id="FitApp" fill="#f4f4f4" fill-rule="evenodd" d="M436.851,33.977H419.907L414.2,61h8.142L424.3,51.58h8.029l1.394-6.37h-8.029l1-4.863h8.8Zm11.326-.217a4.64,4.64,0,0,0-3.035-.971,5.174,5.174,0,0,0-3.468,1.121,3.664,3.664,0,0,0-1.319,2.931,3.1,3.1,0,0,0,1.187,2.478,4.64,4.64,0,0,0,3.073.99,5.132,5.132,0,0,0,3.439-1.112,3.626,3.626,0,0,0,1.31-2.9A3.12,3.12,0,0,0,448.177,33.76ZM447.97,41.7h-8.03L435.851,61h8.029Zm18.638,0h-4.467l1.339-6.37-8.369,1.922L454.188,41.7h-2.752l-1.338,5.56h2.921q-1.187,5.6-1.442,6.936a11.894,11.894,0,0,0-.254,2.017q0,5.259,5.56,5.258a19.2,19.2,0,0,0,2.931-.254,13,13,0,0,0,2.516-.594l1.15-5.56a7.679,7.679,0,0,1-2.583.528,1.107,1.107,0,0,1-1.338-1.15,9.781,9.781,0,0,1,.264-1.941l1.112-5.24h4.335ZM493.3,61l-3.053-27.027H480.12L465.118,61h8.952l2.432-4.976h8.1L485,61H493.3Zm-9.462-18.112,0.358,6.766h-4.824l3.279-6.917,0.716-1.64,0.358-.942h0.189a12.615,12.615,0,0,0-.094,1.847Zm35.423,0.283a5.016,5.016,0,0,0-4.118-1.941q-4.016,0-6.672,3.9H508.39a30.871,30.871,0,0,0,.415-3.43H501.1q-0.055.83-.4,2.846t-0.772,3.939l-4.543,21.392h8.067l1.885-8.576a5.568,5.568,0,0,0,1.112.113q1.017,0.057,1.282.056a14.065,14.065,0,0,0,6.851-1.611,11.237,11.237,0,0,0,4.589-4.674,14.524,14.524,0,0,0,1.64-6.964A7.837,7.837,0,0,0,519.256,43.174Zm-7.992,11.177a4.649,4.649,0,0,1-3.8,2.017,7.442,7.442,0,0,1-1.207-.113l0.736-3.2a13.08,13.08,0,0,1,1.733-4.42,2.9,2.9,0,0,1,2.281-1.517q1.809,0,1.809,2.356A7.753,7.753,0,0,1,511.264,54.351Zm33.887-11.177a5.016,5.016,0,0,0-4.118-1.941q-4.016,0-6.672,3.9h-0.076a30.871,30.871,0,0,0,.415-3.43h-7.709q-0.056.83-.4,2.846t-0.772,3.939L521.28,69.881h8.067l1.885-8.576a5.568,5.568,0,0,0,1.112.113q1.017,0.057,1.282.056a14.065,14.065,0,0,0,6.851-1.611,11.237,11.237,0,0,0,4.589-4.674,14.524,14.524,0,0,0,1.64-6.964A7.837,7.837,0,0,0,545.151,43.174ZM537.16,54.351a4.652,4.652,0,0,1-3.8,2.017,7.442,7.442,0,0,1-1.207-.113l0.736-3.2a13.058,13.058,0,0,1,1.734-4.42,2.892,2.892,0,0,1,2.28-1.517q1.809,0,1.809,2.356A7.759,7.759,0,0,1,537.16,54.351Z" transform="translate(-414.188 -32.781)"/>
</svg>
