<?xml version="1.0" encoding="utf-8"?>
<svg version="1.1" id="Слой_1" xmlns="http://www.w3.org/2000/svg" xmlns:xlink="http://www.w3.org/1999/xlink" x="0px" y="0px" width="26" height="24"
	 viewBox="0 0 26 24" style="enable-background:new 0 0 26 24;" xml:space="preserve">
<g>
	<path fill="#FFFFFF" d="M2.6,19.6c0-0.6,0-1.8,0-1.8c1.8-1.8,2.7-3.5,2.8-5.1C5.6,6.8,6.2,6,9.1,4.9c3-1.1,2.3-1.7,3.1-3.7
		c0.6,0,2,0,2.6,0c0.6,1.9,0.5,3.1,2.8,3.6c3.7,0.8,3.2,4.1,3.7,7.7c0.3,1.9,1.6,4.3,3,5.3c0,0,0,1.7,0,1.8
		C21.5,19.6,2.9,19.6,2.6,19.6z"/>
	<path fill="#FFFFFF" d="M10.4,20.8c0,0.1,4,0,5.2,0c-0.3,1.2-0.6,2.2-2.6,2.2C11.2,22.9,10.8,22.1,10.4,20.8z"/>
</g>
</svg>
