<?xml version="1.0" encoding="utf-8"?>
<svg version="1.1" id="Слой_1" xmlns="http://www.w3.org/2000/svg" xmlns:xlink="http://www.w3.org/1999/xlink" x="0px" y="0px" width="39" height="36"
	 viewBox="0 0 39 36" style="enable-background:new 0 0 39 36;" xml:space="preserve">
<g>
	<path fill="#FFFFFF" d="M3,29.5c0-0.9,0-2.8,0-2.8c2.7-2.8,4.1-5.3,4.2-7.8C7.5,10,8.4,8.8,12.9,7.1c4.5-1.7,3.5-2.6,4.7-5.6
		c0.9,0,3,0,4,0c1,2.9,0.7,4.7,4.2,5.5c5.7,1.3,4.9,6.2,5.6,11.8c0.4,2.9,2.4,6.5,4.6,8c0,0,0,2.5,0,2.7C31.8,29.6,3.4,29.6,3,29.5z
		"/>
	<path fill="#FFFFFF" d="M14.7,31.3c0,0.1,6.2,0.1,7.9,0c-0.4,1.8-0.9,3.3-3.9,3.3C16.1,34.6,15.5,33.4,14.7,31.3z"/>
</g>
</svg>
