<svg width="24" height="24" viewBox="0 0 24 24" fill="none" xmlns="http://www.w3.org/2000/svg">
<path d="M21.3117 5.71608C21.013 5.8491 20.7058 5.96136 20.392 6.05251C20.7636 5.63066 21.0468 5.1343 21.2197 4.59113C21.2585 4.46938 21.2183 4.33611 21.1187 4.25648C21.0191 4.17679 20.8808 4.16725 20.7712 4.23247C20.1047 4.62931 19.3857 4.9145 18.6318 5.08127C17.8723 4.33623 16.8408 3.91223 15.7745 3.91223C13.5236 3.91223 11.6924 5.75069 11.6924 8.01043C11.6924 8.18841 11.7036 8.3654 11.7258 8.53993C8.93271 8.29372 6.33601 6.91542 4.55286 4.71941C4.48932 4.64113 4.39142 4.59895 4.29119 4.60702C4.1909 4.6149 4.10079 4.67168 4.05012 4.75894C3.68846 5.38198 3.49727 6.09457 3.49727 6.81959C3.49727 7.80708 3.84844 8.74402 4.46877 9.47612C4.28015 9.41054 4.09711 9.32857 3.92241 9.2312C3.82863 9.1788 3.71417 9.1796 3.62099 9.23324C3.52775 9.28688 3.4693 9.38553 3.46684 9.49337C3.46641 9.51153 3.46641 9.5297 3.46641 9.54811C3.46641 11.0221 4.25659 12.3492 5.46468 13.0725C5.36089 13.0621 5.25717 13.047 5.15412 13.0272C5.04788 13.0068 4.93863 13.0442 4.86699 13.1256C4.79522 13.2069 4.77148 13.3202 4.80454 13.4236C5.25171 14.8253 6.403 15.8562 7.7948 16.1706C6.64044 16.8965 5.32035 17.2767 3.93456 17.2767C3.6454 17.2767 3.35459 17.2596 3.06998 17.2258C2.92859 17.2089 2.79339 17.2927 2.74524 17.4277C2.69709 17.5628 2.74813 17.7134 2.86841 17.7908C4.64868 18.9368 6.70718 19.5425 8.82126 19.5425C12.9773 19.5425 15.5772 17.5749 17.0263 15.9243C18.8334 13.8661 19.8698 11.1418 19.8698 8.45008C19.8698 8.33763 19.8681 8.22407 19.8646 8.11088C20.5776 7.57159 21.1914 6.91893 21.6909 6.16878C21.7668 6.05485 21.7586 5.90428 21.6707 5.7994C21.5829 5.69446 21.4366 5.66053 21.3117 5.71608Z" fill="#B5B5B5"/>
</svg>
