<svg width="24" height="24" viewBox="0 0 24 24" fill="none" xmlns="http://www.w3.org/2000/svg">
<path d="M7.39761 12.3496H9.482V20.9648C9.482 21.1348 9.61928 21.2727 9.7887 21.2727H13.3228C13.4923 21.2727 13.6295 21.1348 13.6295 20.9648V12.3902H16.0257C16.1815 12.3902 16.3126 12.2728 16.3304 12.1174L16.6943 8.94573C16.7043 8.85847 16.6768 8.77108 16.6186 8.70562C16.5604 8.64009 16.4771 8.60259 16.3897 8.60259H13.6297V6.61442C13.6297 6.01509 13.9511 5.71118 14.5851 5.71118C14.6755 5.71118 16.3897 5.71118 16.3897 5.71118C16.5591 5.71118 16.6964 5.57329 16.6964 5.40326V2.49196C16.6964 2.32187 16.5591 2.18404 16.3897 2.18404H13.9027C13.8852 2.18318 13.8462 2.18176 13.7888 2.18176C13.3573 2.18176 11.8573 2.26681 10.6725 3.36115C9.35969 4.57385 9.54217 6.02587 9.58578 6.27762V8.60253H7.39761C7.22819 8.60253 7.09091 8.74035 7.09091 8.91044V12.0416C7.09091 12.2117 7.22819 12.3496 7.39761 12.3496Z" fill="#B5B5B5"/>
</svg>
