<svg width="24" height="24" viewBox="0 0 24 24" fill="none" xmlns="http://www.w3.org/2000/svg">
<path d="M5.09006 2.49048H18.7675C20.0669 2.49048 21.1292 3.55735 21.1292 4.86194V18.5937C21.1292 19.8979 20.0669 20.9641 18.7675 20.9641H5.09006C3.79064 20.9641 2.72725 19.8979 2.72725 18.5937V4.86194C2.72725 3.55735 3.79064 2.49048 5.09006 2.49048ZM16.1328 4.54226C15.6766 4.54226 15.3044 4.91736 15.3044 5.37518V7.36519C15.3044 7.82319 15.6766 8.19743 16.1328 8.19743H18.2124C18.6679 8.19743 19.0409 7.82319 19.0409 7.36519V5.37518C19.0409 4.91736 18.6679 4.54226 18.2124 4.54226H16.1328ZM19.0488 10.3027H17.4297C17.5832 10.8062 17.6664 11.3371 17.6664 11.8891C17.6664 14.961 15.1045 17.4525 11.9455 17.4525C8.78731 17.4525 6.22534 14.961 6.22534 11.8891C6.22534 11.3371 6.30937 10.8062 6.46217 10.3027H4.77293V18.1073C4.77293 18.5115 5.10165 18.8403 5.50386 18.8403H18.3182C18.7207 18.8403 19.0488 18.5115 19.0488 18.1073V10.3027ZM11.9456 8.09249C9.90542 8.09249 8.25047 9.70155 8.25047 11.6882C8.25047 13.6729 9.90542 15.2832 11.9456 15.2832C13.9868 15.2832 15.6419 13.6729 15.6419 11.6882C15.6419 9.70148 13.9868 8.09249 11.9456 8.09249Z" fill="#B5B5B5"/>
</svg>
