<?xml version="1.0" encoding="utf-8"?>
<svg version="1.1" id="Слой_2" xmlns="http://www.w3.org/2000/svg" xmlns:xlink="http://www.w3.org/1999/xlink" x="0px" y="0px" width="36" height="36"
	 viewBox="0 0 36 36" style="enable-background:new 0 0 36 36;" xml:space="preserve">
<style type="text/css">
	.st0{fill:#FFFFFF;}
	.st1{fill:none;stroke:#6B6A6A;stroke-linecap:round;stroke-miterlimit:10;}
	.st2{fill:none;stroke:#6B6A6A;stroke-width:0.8381;stroke-linecap:round;stroke-miterlimit:10;}
</style>
<circle class="st0" cx="18.2" cy="17.9" r="17.5"/>
<line class="st1" x1="15.9" y1="20.3" x2="20.6" y2="15.6"/>
<path class="st2" d="M25.4,10.7c2.3,2.3,1,3.8-0.7,5.5c-1.7,1.7-3.1,3.2-5.5,0.7c-2.4-2.6-1-3.8,0.7-5.5
	C21.6,9.7,23.3,8.5,25.4,10.7z"/>
<path class="st2" d="M17.3,18.8c2.3,2.3,1,3.8-0.7,5.5c-1.7,1.7-3.1,3.2-5.5,0.7c-2.4-2.6-1-3.8,0.7-5.5S15.2,16.6,17.3,18.8z"/>
</svg>
