<?xml version="1.0" encoding="utf-8"?>
<svg version="1.1" xmlns="http://www.w3.org/2000/svg" xmlns:xlink="http://www.w3.org/1999/xlink" x="0px" y="0px" width="145" height="35"
	 viewBox="0 0 145 35" style="enable-background:new 0 0 145 35;" xml:space="preserve">
<g id="Слой_1">
	<g id="Слой_2">
		<g>
			<path fill="#3B3B3B" d="M20,12c0,3.1-0.9,5.4-2.7,7.1c-1.9,1.7-4.5,2.5-7.8,2.5H6.6v11.1H2.2V3.1h7.7c3.3,0,5.8,0.7,7.5,2.3
				C19.2,6.9,20,9.1,20,12z M6.5,17.5h2.3c2.3,0,3.9-0.4,4.9-1.3c1-0.8,1.6-2.2,1.6-4.1c0-1.7-0.5-2.9-1.5-3.8s-2.2-1.4-4.2-1.4h-3
				v10.4H6.5z"/>
			<path fill="#3B3B3B" d="M39.1,21.4c0,3.7-0.8,6.5-2.5,8.6c-1.7,2.1-4.1,3-7.1,3c-1.9,0-3.5-0.5-5-1.5c-1.5-0.9-2.6-2.3-3.3-4.1
				c-0.8-1.8-1.1-3.8-1.1-6.2c0-3.7,0.8-6.5,2.5-8.4c1.7-2,4.1-3,7.1-3c2.9,0,5.2,1,7,3.1C38.2,15,39.1,17.8,39.1,21.4z M24.4,21.4
				c0,5.1,1.8,7.7,5.2,7.7s5.1-2.6,5.1-7.7s-1.8-7.6-5.2-7.6c-1.8,0-3.1,0.6-4,2C24.7,17,24.4,19,24.4,21.4z"/>
			<path fill="#3B3B3B" d="M51.7,10c0.8,0,1.6,0.1,2.2,0.2l-0.4,4.4c-0.6-0.2-1.3-0.2-1.9-0.2c-1.8,0-3.1,0.6-4.2,1.9
				c-1,1.3-1.7,2.8-1.7,4.8v11.7h-4.3V10.4h3.3l0.5,4h0.2c0.6-1.4,1.6-2.4,2.6-3.1C49.3,10.3,50.4,10,51.7,10z"/>
			<path fill="#3B3B3B" d="M66,29.2c1,0,2.1-0.2,3.1-0.5v3.5c-0.5,0.2-1,0.4-1.9,0.6c-0.7,0.1-1.6,0.2-2.3,0.2c-4.1,0-6.2-2.4-6.2-7.1
				V13.8h-2.8v-2.1l3-1.8l1.5-4.7h2.7v5h5.7v3.5h-5.7v11.9c0,1.1,0.3,2,0.7,2.5C64.4,28.9,65.1,29.2,66,29.2z"/>
			<path fill="#3B3B3B" d="M83.3,16.6h-4.7v16.3h-4.1V16.6h-3.2v-1.9l3.2-1.3v-1.3c0-2.3,0.5-4,1.6-5.1s2.7-1.7,4.9-1.7
				c1.5,0,2.9,0.2,4.3,0.7l-1.1,3.1c-1-0.3-2-0.5-2.9-0.5c-0.9,0-1.6,0.3-2,0.9s-0.6,1.5-0.6,2.6v1.3h4.7V16.6z"/>
		</g>
	</g>
	<g id="Слой_3">
		<g>
			<path fill="#BBBBBB" d="M104.3,22.1c0,3.7-0.8,6.5-2.5,8.6c-1.7,2.1-4.1,3-7.1,3c-1.9,0-3.5-0.5-5-1.5c-1.5-0.9-2.6-2.3-3.3-4.1
				c-0.7-1.8-1.1-3.8-1.1-6.2c0-3.7,0.8-6.5,2.5-8.4c1.7-2,4.1-3,7.1-3c2.9,0,5.2,1,7,3.1C103.5,15.7,104.3,18.5,104.3,22.1z
				 M89.6,22.1c0,5.1,1.8,7.7,5.2,7.7c3.4,0,5.1-2.6,5.1-7.7s-1.8-7.6-5.2-7.6c-1.8,0-3.1,0.6-4,2C90,17.7,89.6,19.6,89.6,22.1z"/>
			<path fill="#BBBBBB" d="M112.5,33.6h-4.3V2.2h4.3V33.6z"/>
			<path fill="#BBBBBB" d="M116.9,5.1c0-0.8,0.2-1.5,0.6-2c0.4-0.4,1-0.7,1.8-0.7c0.7,0,1.4,0.2,1.8,0.7c0.4,0.4,0.6,1.1,0.6,2
				s-0.2,1.5-0.6,1.9c-0.4,0.4-1,0.7-1.8,0.7c-0.8,0-1.4-0.2-1.8-0.7S116.9,5.9,116.9,5.1z M121.4,33.3h-4.3V11h4.3V33.3z"/>
			<path fill="#BBBBBB" d="M143.8,22.1c0,3.7-0.8,6.5-2.5,8.6c-1.7,2.1-4.1,3-7.1,3c-1.9,0-3.5-0.5-5-1.5c-1.5-0.9-2.6-2.3-3.3-4.1
				c-0.7-1.8-1.1-3.8-1.1-6.2c0-3.7,0.8-6.5,2.5-8.4s4.1-3,7.1-3c2.9,0,5.2,1,7,3.1C143,15.7,143.8,18.5,143.8,22.1z M129,22.1
				c0,5.1,1.8,7.7,5.2,7.7c3.4,0,5.1-2.6,5.1-7.7s-1.8-7.6-5.2-7.6c-1.8,0-3.1,0.6-4,2C129.4,17.7,129,19.6,129,22.1z"/>
		</g>
	</g>
</g>
<g id="Слой_2_1_">
</g>
</svg>
